<?xml version="1.0" standalone="no"?>
<!DOCTYPE svg PUBLIC "-//W3C//DTD SVG 20010904//EN"
 "http://www.w3.org/TR/2001/REC-SVG-20010904/DTD/svg10.dtd">
<svg version="1.0" xmlns="http://www.w3.org/2000/svg"
 width="820.000000pt" height="569.000000pt" viewBox="0 0 820.000000 569.000000"
 preserveAspectRatio="xMidYMid meet">

<g transform="translate(0.000000,569.000000) scale(0.100000,-0.100000)"
fill="#000000" stroke="none">
<path d="M3900 5266 c-634 -92 -1125 -554 -1261 -1185 -16 -74 -22 -148 -26
-323 l-6 -227 -79 -77 -79 -77 7 -136 c3 -75 14 -345 23 -600 l17 -463 80 -76
c43 -42 127 -123 187 -181 l107 -104 0 -272 0 -272 321 -419 c176 -230 330
-427 341 -436 19 -17 61 -18 568 -18 507 0 549 1 568 18 11 9 165 206 341 436
l321 419 0 272 0 272 108 104 c59 58 143 139 186 181 l80 76 17 458 c9 253 20
523 23 601 l7 142 -79 76 -79 76 -6 227 c-6 243 -20 338 -73 498 -170 513
-620 904 -1151 999 -123 23 -346 27 -463 11z m-321 -473 c5 -21 65 -261 132
-533 67 -272 123 -498 126 -502 2 -5 121 -8 263 -8 142 0 261 3 263 8 3 4 59
230 126 502 67 272 127 512 132 533 5 20 16 37 24 37 20 0 152 -61 234 -109
151 -89 359 -270 435 -379 l29 -42 -37 -109 c-76 -229 -102 -498 -91 -957 l6
-302 -73 -45 c-185 -116 -430 -196 -733 -239 -118 -17 -512 -17 -630 0 -303
43 -548 123 -733 239 l-73 45 6 302 c11 459 -15 728 -91 957 l-37 109 27 38
c63 91 228 245 359 334 73 50 284 158 309 158 12 0 20 -12 27 -37z m-692 -888
c14 -84 17 -176 19 -585 1 -531 12 -712 46 -755 13 -17 52 -35 126 -59 146
-47 232 -64 400 -78 170 -14 175 -13 238 76 l41 59 343 0 343 0 41 -59 c63
-89 68 -90 238 -76 168 14 254 31 400 78 74 24 113 42 126 59 34 43 45 224 46
755 2 498 7 571 49 733 l12 48 28 -29 27 -28 10 -265 c5 -145 14 -302 20 -349
26 -201 82 -436 141 -590 16 -41 29 -85 29 -98 0 -29 -80 -173 -161 -293 -131
-191 -365 -438 -569 -598 -58 -45 -112 -88 -121 -95 -14 -12 -110 -331 -125
-418 l-6 -38 -528 0 -528 0 -6 38 c-15 87 -111 406 -125 418 -9 7 -63 50 -121
95 -275 217 -525 503 -680 777 -60 108 -60 107 -7 257 97 270 132 485 147 894
l10 265 27 28 28 29 12 -48 c7 -26 20 -93 30 -148z m405 -2117 l106 -89 32
-87 c18 -48 47 -152 66 -231 l33 -143 -16 -120 c-17 -128 -27 -148 -72 -148
-42 0 -58 19 -76 90 -58 231 -195 591 -317 832 -44 87 -76 163 -73 168 4 6 52
-32 108 -86 56 -53 150 -137 209 -186z m1860 105 c-122 -242 -259 -601 -317
-833 -18 -71 -34 -90 -76 -90 -45 0 -55 20 -72 148 l-16 120 33 143 c19 79 48
183 66 231 l32 87 107 90 c59 49 152 132 207 184 54 52 103 92 108 87 4 -4
-28 -79 -72 -167z m-545 -685 c-11 -42 -36 -252 -43 -351 -10 -148 29 -137
-464 -137 -493 0 -454 -11 -464 137 -7 99 -32 309 -43 351 l-5 22 512 0 512 0
-5 -22z"/>
</g>
</svg>
